<svg xmlns="http://www.w3.org/2000/svg" viewBox="0 0 24 24" x="0px" y="0px">
  <path fill="#ffffff" d="m17.75,7.76v-3.76c0-2.17-5.19-2.75-8.25-2.75S1.25,1.83,1.25,4v12c0,2.18,5.11,2.62,6.95,2.71,1.32,2.4,3.87,4.04,6.8,4.04,4.27,0,7.75-3.48,7.75-7.75,0-3.3-2.08-6.12-5-7.24Zm-2.75-.51c-2.9,0-5.42,1.6-6.75,3.96-3.38-.15-5.25-.88-5.5-1.25,0,0,0-.01,0-.02v-4.25c1.76.81,4.72,1.07,6.76,1.07s4.99-.26,6.75-1.07v1.68c-.41-.07-.82-.11-1.25-.11Zm1.22-3.28c-.36.48-2.79,1.28-6.72,1.28s-6.4-.81-6.72-1.22c.37-.48,2.8-1.28,6.72-1.28s6.4.81,6.72,1.22ZM2.75,16v-4.3c1.41.64,3.52.89,4.86.98-.23.73-.36,1.51-.36,2.32,0,.75.11,1.47.31,2.16-2.99-.22-4.64-.88-4.81-1.16Zm12.25,5.25c-3.45,0-6.25-2.8-6.25-6.25s2.8-6.25,6.25-6.25,6.25,2.8,6.25,6.25-2.8,6.25-6.25,6.25Zm-1.14-8.22l-1.97,1.97,1.97,1.97c.29.29.29.77,0,1.06-.15.15-.34.22-.53.22s-.38-.07-.53-.22l-2.5-2.5c-.29-.29-.29-.77,0-1.06l2.5-2.5c.29-.29.77-.29,1.06,0s.29.77,0,1.06Zm5.83,2.5l-2.5,2.5c-.15.15-.34.22-.53.22s-.38-.07-.53-.22c-.29-.29-.29-.77,0-1.06l1.97-1.97-1.97-1.97c-.29-.29-.29-.77,0-1.06s.77-.29,1.06,0l2.5,2.5c.29.29.29.77,0,1.06Z"/>
 </svg>