<svg xmlns="http://www.w3.org/2000/svg"
  xmlns:xlink="http://www.w3.org/1999/xlink" version="1.1" x="0px" y="0px" viewBox="0 0 64 64" enable-background="new 0 0 64 64" xml:space="preserve">
  <g>
    <path fill="#ffffff" d="M53.044,36.381c0.004,1.001,0.008,2.003,0.011,3.004c-0.066,0.217-0.163,0.429-0.194,0.651   c-1.374,9.664-7.575,16.541-17.085,18.865c-1.661,0.406-3.372,0.609-5.06,0.906c-1.155,0.004-2.311,0.009-3.466,0.013   c-1.786-0.391-3.618-0.641-5.352-1.196C11.977,55.45,5.014,49.222,2.106,38.987c-0.541-1.906-0.724-3.914-1.072-5.875   c-0.004-1.078-0.008-2.157-0.012-3.235c0.151-1.018,0.271-2.042,0.457-3.054C3.166,17.67,8.261,11.486,17.291,8.774   c1.303-0.391,2.655-0.623,3.984-0.928c1.001-0.004,2.003-0.008,3.004-0.011c1.852,0.459,3.775,0.734,5.541,1.416   c3.331,1.286,5.793,3.541,6.413,7.246c0.485,2.896-0.438,5.533-1.83,8.05c-0.816,1.476-1.686,2.953-2.251,4.53   c-1.051,2.937-0.053,5.576,2.529,7.331c2.091,1.421,4.419,1.829,6.836,1.319c2.356-0.497,4.124-1.729,4.698-4.332   c0.147-0.668,0.879-1.383,1.527-1.731c1.691-0.906,3.476-0.244,4.319,1.57C52.522,34.22,52.725,35.327,53.044,36.381z    M15.683,50.157c2.682,0.008,4.908-2.193,4.95-4.895c0.041-2.65-2.236-4.94-4.91-4.938c-2.7,0.001-4.937,2.219-4.938,4.897   C10.785,47.923,12.993,50.149,15.683,50.157z M46.611,45.168c0.014-2.693-2.179-4.924-4.88-4.966   c-2.631-0.041-4.942,2.258-4.943,4.916c-0.001,2.702,2.196,4.921,4.891,4.941C44.37,50.079,46.597,47.871,46.611,45.168z    M14.048,32.213c-0.037-2.701-2.318-4.953-4.95-4.888c-2.706,0.068-4.86,2.293-4.837,4.997c0.023,2.685,2.279,4.916,4.948,4.894   C11.862,37.194,14.084,34.895,14.048,32.213z M28.702,46.799c-2.689,0.006-4.917,2.235-4.917,4.922   c-0.001,2.66,2.252,4.863,4.973,4.863c2.696,0,4.918-2.226,4.909-4.919C33.657,48.994,31.412,46.793,28.702,46.799z M15.7,14.338   c-2.714-0.036-4.973,2.13-5.011,4.804c-0.038,2.708,2.109,4.932,4.817,4.991c2.696,0.059,4.98-2.124,5.015-4.794   C20.558,16.63,18.383,14.374,15.7,14.338z"/>
    <path fill="#ffffff" d="M36.661,35.362c-2.169-5.446-1.469-11.358,2.94-14.18c1.867-1.195,3.792-1.458,5.736-0.253   c1.819,1.128,2.819,3.581,2.431,5.71c-0.305,1.675-1.339,2.75-2.88,3.303c-3.13,1.123-5.877,2.787-8.02,5.371   C36.834,35.357,36.732,35.346,36.661,35.362z"/>
    <path fill="#ffffff" d="M60.262,4.262c2.002-0.382,3.034,0.594,2.629,2.507c-1.138,5.384-5.894,8.58-9.749,12.004   c-0.497,0.442-0.926,0.354-1.386-0.109c-0.948-0.955-1.961-1.846-2.885-2.822c-0.218-0.23-0.383-0.802-0.251-1.031   c2.662-4.603,6.187-8.3,11.172-10.419C59.969,4.317,60.164,4.288,60.262,4.262z"/>
    <path fill="#ffffff" d="M45.122,19.478c0.815-1.112,1.604-2.188,2.471-3.371c-0.042,0.057,2.476,2.361,2.695,2.57   c0.259,0.247,1.445,1.081,1.46,1.42c0.042,0.934-3.241,2.562-3.937,1.945C46.896,21.231,46.034,20.358,45.122,19.478z"/>
  </g>
</svg>